<svg width="20" height="20" viewBox="0 0 20 20" fill="none" xmlns="http://www.w3.org/2000/svg">
<path d="M14.8462 1H17.6154C17.9826 1 18.3348 1.14588 18.5945 1.40554C18.8542 1.66521 19 2.01739 19 2.38462V5.15385" stroke="black" stroke-width="2" stroke-linecap="round" stroke-linejoin="round"/>
<path d="M1 5.15385V2.38462C1 2.01739 1.14588 1.66521 1.40554 1.40554C1.66521 1.14588 2.01739 1 2.38462 1H5.15385" stroke="black" stroke-width="2" stroke-linecap="round" stroke-linejoin="round"/>
<path d="M14.8462 19H17.6154C17.9826 19 18.3348 18.8542 18.5945 18.5945C18.8542 18.3348 19 17.9826 19 17.6154V14.8462" stroke="black" stroke-width="2" stroke-linecap="round" stroke-linejoin="round"/>
<path d="M1 14.8462V17.6154C1 17.9826 1.14588 18.3348 1.40554 18.5945C1.66521 18.8542 2.01739 19 2.38462 19H5.15385" stroke="black" stroke-width="2" stroke-linecap="round" stroke-linejoin="round"/>
<path d="M9.99996 14.8461C12.6764 14.8461 14.8461 12.6764 14.8461 9.99996C14.8461 7.32351 12.6764 5.15381 9.99996 5.15381C7.32351 5.15381 5.15381 7.32351 5.15381 9.99996C5.15381 12.6764 7.32351 14.8461 9.99996 14.8461Z" stroke="black" stroke-width="2" stroke-linecap="round" stroke-linejoin="round"/>
</svg>
