<svg width="16" height="16" viewBox="0 0 16 16" fill="none" xmlns="http://www.w3.org/2000/svg">
<path d="M6.00003 10.4H10C10.1 10.3998 10.1964 10.4371 10.2703 10.5044C10.3441 10.5718 10.3901 10.6643 10.3991 10.7639C10.4082 10.8634 10.3796 10.9627 10.3191 11.0423C10.2585 11.1218 10.1704 11.1758 10.072 11.1936L10 11.2H6.00003C5.90007 11.2002 5.80367 11.1629 5.7298 11.0956C5.65594 11.0283 5.60996 10.9357 5.60093 10.8361C5.5919 10.7366 5.62046 10.6373 5.68101 10.5577C5.74155 10.4782 5.82967 10.4242 5.92803 10.4064L6.00003 10.4H10H6.00003ZM4.40003 7.2H11.6C11.7 7.19982 11.7964 7.23706 11.8703 7.30441C11.9441 7.37175 11.9901 7.46431 11.9991 7.56386C12.0082 7.66341 11.9796 7.76273 11.9191 7.84227C11.8585 7.9218 11.7704 7.97579 11.672 7.9936L11.6 8H4.40003C4.30007 8.00019 4.20367 7.96294 4.1298 7.89559C4.05594 7.82825 4.00996 7.73569 4.00093 7.63614C3.9919 7.5366 4.02046 7.43727 4.08101 7.35774C4.14155 7.2782 4.22967 7.22421 4.32803 7.2064L4.40003 7.2H11.6H4.40003ZM2.80003 4H13.2C13.3 3.99982 13.3964 4.03706 13.4703 4.10441C13.5441 4.17175 13.5901 4.26431 13.5991 4.36386C13.6082 4.46341 13.5796 4.56273 13.5191 4.64227C13.4585 4.7218 13.3704 4.77579 13.272 4.7936L13.2 4.8H2.80003C2.70007 4.80018 2.60367 4.76294 2.5298 4.69559C2.45594 4.62825 2.40996 4.53569 2.40093 4.43614C2.3919 4.3366 2.42046 4.23727 2.48101 4.15774C2.54155 4.0782 2.62967 4.02421 2.72803 4.0064L2.80003 4H13.2H2.80003Z" fill="#E5EEFF"/>
</svg>
