<svg width="8" height="8" viewBox="0 0 8 8" fill="none" xmlns="http://www.w3.org/2000/svg">
<path d="M3.898 0.00699997L4 0C4.18124 7.6429e-06 4.35634 0.0656426 4.49293 0.184767C4.62952 0.303891 4.71835 0.468446 4.743 0.648L4.75 0.75V3.249L7.25 3.25C7.43124 3.25001 7.60634 3.31564 7.74293 3.43477C7.87952 3.55389 7.96835 3.71845 7.993 3.898L8 4C7.99999 4.18124 7.93436 4.35634 7.81523 4.49293C7.69611 4.62952 7.53155 4.71835 7.352 4.743L7.25 4.75L4.75 4.749V7.25C4.74999 7.43124 4.68436 7.60634 4.56523 7.74293C4.44611 7.87952 4.28155 7.96835 4.102 7.993L4 8C3.81876 7.99999 3.64366 7.93436 3.50707 7.81523C3.37048 7.69611 3.28165 7.53155 3.257 7.352L3.25 7.25V4.749L0.75 4.75C0.568762 4.74999 0.393658 4.68436 0.257069 4.56523C0.120481 4.44611 0.0316483 4.28155 0.00699997 4.102L0 4C7.6429e-06 3.81876 0.0656426 3.64366 0.184767 3.50707C0.303891 3.37048 0.468446 3.28165 0.648 3.257L0.75 3.25L3.25 3.249V0.75C3.25001 0.568762 3.31564 0.393658 3.43477 0.257069C3.55389 0.120481 3.71845 0.0316483 3.898 0.00699997L4 0L3.898 0.00699997Z" fill="white"/>
</svg>
