<svg width="16" height="16" viewBox="0 0 16 16" fill="none" xmlns="http://www.w3.org/2000/svg">
<path d="M8.50334 13.3325V13.3312H13.502C14.146 13.3312 14.6687 12.8085 14.6687 12.1645V3.83452C14.6687 3.5251 14.5458 3.22835 14.327 3.00956C14.1082 2.79077 13.8114 2.66785 13.502 2.66785H7.50334V2.66919H2.50401C2.19459 2.66919 1.89784 2.7921 1.67905 3.01089C1.46026 3.22969 1.33734 3.52643 1.33734 3.83585V12.1659C1.33734 12.8105 1.86001 13.3325 2.50401 13.3325H8.50267H8.50334ZM13.502 12.3312H8.50334V3.66785H13.502C13.5462 3.66785 13.5886 3.68541 13.6199 3.71667C13.6511 3.74792 13.6687 3.79032 13.6687 3.83452V12.1639C13.6687 12.2081 13.6511 12.2504 13.6199 12.2817C13.5886 12.313 13.5462 12.3305 13.502 12.3305V12.3312ZM7.50334 12.3325H2.50467C2.46047 12.3325 2.41808 12.315 2.38682 12.2837C2.35557 12.2524 2.33801 12.2101 2.33801 12.1659V3.83585C2.33801 3.74385 2.41267 3.66919 2.50467 3.66919H7.50334V12.3325Z" fill="#E5EEFF"/>
</svg>
