<svg width="648" height="108" viewBox="0 0 648 108" fill="none" xmlns="http://www.w3.org/2000/svg">
<path d="M10.3356 106.5C21.0238 99.8859 45.4062 86.8229 57.4304 87.4843C72.4606 88.3111 85.4868 98.2324 102.521 98.2324C119.555 98.2324 133.964 72.6025 154.626 79.2167C199.08 93.4471 188.694 70.949 228.775 79.2167C260.84 85.8308 290.9 77.5631 301.922 72.6025C314.614 68.1931 349.418 59.8703 387.094 61.8545C434.188 64.3348 472.265 61.8545 492.305 46.1459C498.843 41.021 528.378 22.9964 564.45 29.6106C600.523 36.2247 639.601 4.80755 645.614 1.50048" stroke="#1C1C1C" stroke-width="3" stroke-linecap="round" stroke-linejoin="round"/>
<path d="M1.49999 95.4077C10.0188 87.241 35.5753 71.5077 69.6506 73.9077C112.245 76.9077 126.68 92.2659 137.193 95.4077C174.311 106.5 168.226 95.4077 205.343 65.9078C258.984 23.2762 270.452 65.9078 300.268 65.9078C320.956 65.9078 327.936 32.9293 387.89 44.9079C415.88 50.5003 440.828 49.9078 453.606 36.9079C466.385 23.908 505.936 13.908 533.318 19.908C560.7 25.9079 580.907 20.3553 587.474 16.908C609.379 5.40805 625.809 14.408 646.497 23.9079" stroke="#A8C5DA" stroke-width="3" stroke-linecap="round" stroke-linejoin="round"/>
</svg>
