<svg width="20" height="20" viewBox="0 0 20 20" fill="none" xmlns="http://www.w3.org/2000/svg">
<path d="M10.0001 11.3845C11.9119 11.3845 13.4617 9.83472 13.4617 7.92296C13.4617 6.01121 11.9119 4.46143 10.0001 4.46143C8.08836 4.46143 6.53857 6.01121 6.53857 7.92296C6.53857 9.83472 8.08836 11.3845 10.0001 11.3845Z" stroke="black" stroke-width="2" stroke-linecap="round" stroke-linejoin="round"/>
<path d="M4.08789 16.7846C4.70576 15.7704 5.57415 14.9322 6.60956 14.3505C7.64498 13.7689 8.8126 13.4634 10.0002 13.4634C11.1878 13.4634 12.3554 13.7689 13.3908 14.3505C14.4262 14.9322 15.2946 15.7704 15.9125 16.7846" stroke="black" stroke-width="2" stroke-linecap="round" stroke-linejoin="round"/>
<path d="M10 19C14.9706 19 19 14.9706 19 10C19 5.02944 14.9706 1 10 1C5.02944 1 1 5.02944 1 10C1 14.9706 5.02944 19 10 19Z" stroke="black" stroke-width="2" stroke-linecap="round" stroke-linejoin="round"/>
</svg>
