<svg width="16" height="16" viewBox="0 0 16 16" fill="none" xmlns="http://www.w3.org/2000/svg">
<g clip-path="url(#clip0_445_1664)">
<path d="M13.1893 0.398438C13.9073 0.398393 14.598 0.655858 15.1198 1.11802C15.6416 1.58017 15.955 2.21199 15.9957 2.88385L16 3.033V12.7639C16 13.4626 15.7039 14.1327 15.1768 14.6268C14.6497 15.1209 13.9348 15.3984 13.1893 15.3984H2.81152C2.09346 15.3987 1.40252 15.1413 0.8805 14.6791C0.358482 14.217 0.0449778 13.585 0.00432419 12.913L0 12.7639V3.033C0 2.33427 0.296122 1.66416 0.823223 1.17008C1.35032 0.676007 2.06523 0.398438 2.81066 0.398438H13.1893ZM7.35095 6.07289L1.29723 6.0737V12.7639L1.30328 12.8936C1.33779 13.2459 1.51154 13.5735 1.79042 13.8119C2.06929 14.0504 2.43318 14.1826 2.81066 14.1825L7.35095 14.1817V6.07289ZM14.7019 10.9367L8.64818 10.9375V14.1817H13.1885C13.5899 14.1817 13.9748 14.0322 14.2586 13.7662C14.5425 13.5001 14.7019 13.1393 14.7019 12.7631V10.9367ZM13.1893 1.61439L8.64818 1.61358V9.72237L14.7019 9.72156L14.7028 3.03381L14.6967 2.90411C14.6622 2.55176 14.4885 2.22422 14.2096 1.98576C13.9307 1.7473 13.5668 1.61513 13.1893 1.6152V1.61439ZM7.35095 1.61358L2.81066 1.61439L2.68699 1.61925C2.30846 1.64855 1.95552 1.81019 1.69823 2.07208C1.44093 2.33398 1.29811 2.67698 1.29809 3.033L1.29723 4.85855H7.35095V1.61277V1.61358Z" fill="#475F7B"/>
</g>
<defs>
<clipPath id="clip0_445_1664">
<rect width="16" height="16" fill="white"/>
</clipPath>
</defs>
</svg>
