<svg width="26" height="26" viewBox="0 0 26 26" fill="none" xmlns="http://www.w3.org/2000/svg">
<g clip-path="url(#clip0_450_1744)" filter="url(#filter0_d_450_1744)">
<path d="M17.0678 2.26768C17.0729 2.27073 17.0779 2.27378 17.083 2.27684M17.083 2.27684C19.3797 3.66771 20.9146 6.19021 20.9146 9.07122C20.9146 13.07 17.9576 16.3781 14.111 16.9283M17.083 2.27684V6.23641M17.083 2.27684V2.27388H20.9146M8.88639 15.8748L8.87124 15.8656M8.87124 15.8656C6.57456 14.4747 5.03966 11.9522 5.03966 9.07122C5.03966 5.07247 7.99659 1.76436 11.8432 1.21414M8.87124 15.8656L8.87124 11.906M8.87124 15.8656V15.8686H5.03966" stroke="white" stroke-width="2" stroke-linecap="round" stroke-linejoin="round"/>
</g>
<defs>
<filter id="filter0_d_450_1744" x="-0.125991" y="0" width="26.2062" height="26.2062" filterUnits="userSpaceOnUse" color-interpolation-filters="sRGB">
<feFlood flood-opacity="0" result="BackgroundImageFix"/>
<feColorMatrix in="SourceAlpha" type="matrix" values="0 0 0 0 0 0 0 0 0 0 0 0 0 0 0 0 0 0 127 0" result="hardAlpha"/>
<feOffset dy="4"/>
<feGaussianBlur stdDeviation="2"/>
<feComposite in2="hardAlpha" operator="out"/>
<feColorMatrix type="matrix" values="0 0 0 0 0 0 0 0 0 0 0 0 0 0 0 0 0 0 0.25 0"/>
<feBlend mode="normal" in2="BackgroundImageFix" result="effect1_dropShadow_450_1744"/>
<feBlend mode="normal" in="SourceGraphic" in2="effect1_dropShadow_450_1744" result="shape"/>
</filter>
<clipPath id="clip0_450_1744">
<rect width="18" height="18" fill="white" transform="translate(3.90573) scale(1.00793)"/>
</clipPath>
</defs>
</svg>
