<svg width="20" height="20" viewBox="0 0 20 20" fill="none" xmlns="http://www.w3.org/2000/svg">
<path d="M13.75 3.75C14.9149 3.75 15.4973 3.75 15.9567 3.9403C16.5693 4.19404 17.056 4.68072 17.3097 5.29329C17.5 5.75272 17.5 6.33515 17.5 7.5V14.75C17.5 16.1501 17.5 16.8502 17.2275 17.385C16.9878 17.8554 16.6054 18.2378 16.135 18.4775C15.6002 18.75 14.9001 18.75 13.5 18.75H6.5C5.09987 18.75 4.3998 18.75 3.86502 18.4775C3.39462 18.2378 3.01217 17.8554 2.77248 17.385C2.5 16.8502 2.5 16.1501 2.5 14.75V7.5C2.5 6.33515 2.5 5.75272 2.6903 5.29329C2.94404 4.68072 3.43072 4.19404 4.04329 3.9403C4.50272 3.75 5.08515 3.75 6.25 3.75M8.25 6.25H11.75C12.4501 6.25 12.8001 6.25 13.0675 6.11376C13.3027 5.99392 13.4939 5.80269 13.6138 5.56749C13.75 5.3001 13.75 4.95007 13.75 4.25V3.25C13.75 2.54993 13.75 2.1999 13.6138 1.93251C13.4939 1.69731 13.3027 1.50608 13.0675 1.38624C12.8001 1.25 12.4501 1.25 11.75 1.25H8.25C7.54993 1.25 7.1999 1.25 6.93251 1.38624C6.69731 1.50608 6.50608 1.69731 6.38624 1.93251C6.25 2.1999 6.25 2.54993 6.25 3.25V4.25C6.25 4.95007 6.25 5.3001 6.38624 5.56749C6.50608 5.80269 6.69731 5.99392 6.93251 6.11376C7.1999 6.25 7.54993 6.25 8.25 6.25Z" stroke="black" stroke-width="2"/>
</svg>
