<svg width="153" height="156" viewBox="0 0 153 156" fill="none" xmlns="http://www.w3.org/2000/svg">
<path d="M131.154 27.0975C125.907 21.1329 116.897 20.6389 111.052 26.0096C105.232 31.3573 104.762 40.4904 109.987 46.4298C117.268 54.705 121.687 65.6245 121.687 77.6398C121.687 103.46 101.217 124.317 76.0566 124.317C50.8963 124.317 30.426 103.46 30.426 77.6398C30.426 75.0263 30.6346 72.4734 31.0329 69.9946C32.2942 62.1454 27.0943 54.6713 19.3167 53.366C11.5276 52.0588 4.24322 57.4558 2.98038 65.315C2.33446 69.3348 2 73.4527 2 77.6398C2 119.373 35.1155 153.279 76.0566 153.279C116.998 153.279 150.113 119.373 150.113 77.6398C150.113 58.2268 142.934 40.4869 131.154 27.0975Z" fill="#BAEDBD" stroke="#F7F9FB" stroke-width="4" stroke-linecap="round" stroke-linejoin="round"/>
<path d="M41.9867 46.4298C47.2122 40.4904 46.742 31.3573 40.9222 26.0096C35.0774 20.6389 26.0675 21.1329 20.8199 27.0975C15.1678 33.5219 10.5722 40.9483 7.32062 49.0927C4.37793 56.4632 7.82235 64.9161 15.1024 67.9518C22.4056 70.9971 30.7004 67.3977 33.6514 60.0063C35.653 54.993 38.4881 50.4064 41.9867 46.4298Z" fill="#95A4FC" stroke="#F7F9FB" stroke-width="4" stroke-linecap="round" stroke-linejoin="round"/>
<path d="M49.7092 39.309C57.094 34.0448 66.0541 30.9627 75.7576 30.9627C85.461 30.9627 94.4211 34.0448 101.806 39.309C108.262 43.9115 117.14 42.2786 121.623 35.7114C126.088 29.1698 124.532 20.1613 118.102 15.5778C106.1 7.02262 91.4836 2 75.7576 2C60.0316 2 45.4148 7.02262 33.4133 15.5778C26.9834 20.1613 25.4276 29.1699 29.8924 35.7114C34.3747 42.2786 43.2527 43.9115 49.7092 39.309Z" fill="#C6C7F8" stroke="#F7F9FB" stroke-width="4" stroke-linecap="round" stroke-linejoin="round"/>
<path d="M111.053 26.0096L112.406 27.4823L111.053 26.0096C105.233 31.3573 104.763 40.4904 109.989 46.4298C117.269 54.705 121.688 65.6245 121.688 77.6398C121.688 103.46 101.218 124.317 76.0578 124.317C68.1674 124.317 61.8447 130.841 61.8447 138.798C61.8447 146.755 68.1674 153.279 76.0578 153.279C116.999 153.279 150.114 119.373 150.114 77.6398C150.114 58.2268 142.935 40.4869 131.155 27.0975C125.908 21.1329 116.898 20.6389 111.053 26.0096Z" fill="#1C1C1C" stroke="#F7F9FB" stroke-width="4" stroke-linecap="round" stroke-linejoin="round"/>
<path fill-rule="evenodd" clip-rule="evenodd" d="M76.0566 121.052C80.0102 121.052 83.8123 120.508 87.4078 119.5C96.5141 116.946 105.922 122.419 108.422 131.726C110.921 141.032 105.565 150.647 96.4589 153.201C89.942 155.029 83.0966 156 76.0566 156C66.6135 156 58.9583 148.177 58.9583 138.526C58.9583 128.876 66.6135 121.052 76.0566 121.052Z" fill="#F7F9FB"/>
<path fill-rule="evenodd" clip-rule="evenodd" d="M76.0565 126.046C80.4511 126.046 84.6879 125.441 88.7008 124.315C95.2053 122.491 101.926 126.4 103.711 133.048C105.496 139.695 101.67 146.563 95.1658 148.388C89.0663 150.098 82.6557 151.008 76.0565 151.008C60.7633 151.008 46.5495 146.125 34.8732 137.802C29.341 133.858 27.9844 126.078 31.8433 120.424C35.7021 114.771 43.3151 113.384 48.8473 117.328C56.5574 122.824 65.9205 126.046 76.0565 126.046Z" fill="#BAEDBD"/>
</svg>
