<svg width="24" height="24" viewBox="0 0 24 24" fill="none" xmlns="http://www.w3.org/2000/svg">
<path d="M16.2308 17.9231V21.3077C16.2308 21.7565 16.0525 22.187 15.7351 22.5043C15.4177 22.8217 14.9873 23 14.5385 23H2.69231C2.24348 23 1.81303 22.8217 1.49567 22.5043C1.1783 22.187 1 21.7565 1 21.3077V2.69231C1 2.24348 1.1783 1.81303 1.49567 1.49567C1.81303 1.1783 2.24348 1 2.69231 1H14.5385C14.9873 1 15.4177 1.1783 15.7351 1.49567C16.0525 1.81303 16.2308 2.24348 16.2308 2.69231V6.07692" stroke="white" stroke-width="2" stroke-linecap="round" stroke-linejoin="round"/>
<path d="M11.1536 12H22.9997" stroke="white" stroke-width="2" stroke-linecap="round" stroke-linejoin="round"/>
<path d="M19.6152 8.61523L22.9999 11.9998L19.6152 15.3845" stroke="white" stroke-width="2" stroke-linecap="round" stroke-linejoin="round"/>
</svg>
