<svg width="25" height="25" viewBox="0 0 25 25" fill="none" xmlns="http://www.w3.org/2000/svg">
<path d="M12.5 14.2695C14.9428 14.2695 16.9231 12.2892 16.9231 9.84642C16.9231 7.40362 14.9428 5.42334 12.5 5.42334C10.0572 5.42334 8.0769 7.40362 8.0769 9.84642C8.0769 12.2892 10.0572 14.2695 12.5 14.2695Z" stroke="white" stroke-width="2" stroke-linecap="round" stroke-linejoin="round"/>
<path d="M4.94531 21.1695C5.73482 19.8736 6.84442 18.8025 8.16745 18.0593C9.49048 17.3161 10.9824 16.9258 12.4999 16.9258C14.0174 16.9258 15.5094 17.3161 16.8324 18.0593C18.1554 18.8025 19.265 19.8736 20.0545 21.1695" stroke="white" stroke-width="2" stroke-linecap="round" stroke-linejoin="round"/>
<path d="M12.5 24C18.8513 24 24 18.8513 24 12.5C24 6.14873 18.8513 1 12.5 1C6.14873 1 1 6.14873 1 12.5C1 18.8513 6.14873 24 12.5 24Z" stroke="white" stroke-width="2" stroke-linecap="round" stroke-linejoin="round"/>
</svg>
