<svg width="20" height="20" viewBox="0 0 20 20" fill="none" xmlns="http://www.w3.org/2000/svg">
<path d="M14.5 2.38464H17.2C17.6774 2.38464 18.1352 2.53052 18.4728 2.79019C18.8104 3.04985 19 3.40204 19 3.76926V17.6154C19 17.9826 18.8104 18.3348 18.4728 18.5945C18.1352 18.8541 17.6774 19 17.2 19H2.8C2.32261 19 1.86477 18.8541 1.52721 18.5945C1.18964 18.3348 1 17.9826 1 17.6154V3.76926C1 3.40204 1.18964 3.04985 1.52721 2.79019C1.86477 2.53052 2.32261 2.38464 2.8 2.38464H5.5" stroke="black" stroke-width="2" stroke-linecap="round" stroke-linejoin="round"/>
<path d="M12.7 1H7.3C6.30589 1 5.5 1.61991 5.5 2.38462V3.07692C5.5 3.84163 6.30589 4.46154 7.3 4.46154H12.7C13.6941 4.46154 14.5 3.84163 14.5 3.07692V2.38462C14.5 1.61991 13.6941 1 12.7 1Z" stroke="black" stroke-width="2" stroke-linecap="round" stroke-linejoin="round"/>
<path d="M5.5 7.9231H14.5" stroke="black" stroke-width="2" stroke-linecap="round" stroke-linejoin="round"/>
<path d="M5.5 11.3846H14.5" stroke="black" stroke-width="2" stroke-linecap="round" stroke-linejoin="round"/>
<path d="M5.5 14.8462H14.5" stroke="black" stroke-width="2" stroke-linecap="round" stroke-linejoin="round"/>
</svg>
