<svg width="16" height="16" viewBox="0 0 16 16" fill="none" xmlns="http://www.w3.org/2000/svg">
<path d="M4.99999 1C5.09882 0.999934 5.19545 1.02916 5.27767 1.08397C5.3599 1.13879 5.42404 1.21675 5.46199 1.308L7.96199 7.308C8.01291 7.43053 8.01307 7.56827 7.96244 7.69092C7.9118 7.81357 7.81452 7.91108 7.69199 7.962C7.56946 8.01292 7.43172 8.01308 7.30907 7.96245C7.18642 7.91181 7.08891 7.81453 7.03799 7.692L6.33299 6H3.66699L2.96199 7.692C2.9379 7.7542 2.90161 7.81096 2.85526 7.85892C2.8089 7.90689 2.75342 7.94509 2.69207 7.97129C2.63072 7.99748 2.56475 8.01113 2.49805 8.01144C2.43135 8.01175 2.36526 7.99871 2.30367 7.97309C2.24208 7.94747 2.18624 7.90978 2.13944 7.86225C2.09264 7.81472 2.05583 7.7583 2.03116 7.69633C2.0065 7.63435 1.99448 7.56806 1.99583 7.50137C1.99717 7.43468 2.01185 7.36893 2.03899 7.308L4.53899 1.308C4.57687 1.21691 4.64086 1.13906 4.72289 1.08425C4.80492 1.02945 4.90133 1.00013 4.99999 1ZM4.99999 2.8L4.08299 5H5.91699L4.99999 2.8ZM2.99999 9C2.86738 9 2.74021 9.05268 2.64644 9.14645C2.55267 9.24021 2.49999 9.36739 2.49999 9.5C2.49999 9.63261 2.55267 9.75979 2.64644 9.85355C2.74021 9.94732 2.86738 10 2.99999 10H5.53999L2.58999 14.213C2.53745 14.288 2.50649 14.3759 2.50049 14.4672C2.4945 14.5586 2.51369 14.6498 2.55598 14.731C2.59828 14.8122 2.66205 14.8802 2.74034 14.9276C2.81864 14.9751 2.90845 15.0001 2.99999 15H6.49999C6.6326 15 6.75978 14.9473 6.85354 14.8536C6.94731 14.7598 6.99999 14.6326 6.99999 14.5C6.99999 14.3674 6.94731 14.2402 6.85354 14.1464C6.75978 14.0527 6.6326 14 6.49999 14H3.95999L6.90999 9.787C6.96253 9.71204 6.99349 9.6241 6.99949 9.53275C7.00549 9.44141 6.98629 9.35017 6.944 9.26899C6.9017 9.1878 6.83793 9.11979 6.75964 9.07235C6.68134 9.02492 6.59153 8.9999 6.49999 9H2.99999ZM8.14699 11.146C8.24075 11.0523 8.36791 10.9996 8.50049 10.9996C8.63307 10.9996 8.76023 11.0523 8.85399 11.146L11 13.293V1.5C11 1.36739 11.0527 1.24021 11.1464 1.14645C11.2402 1.05268 11.3674 1 11.5 1C11.6326 1 11.7598 1.05268 11.8535 1.14645C11.9473 1.24021 12 1.36739 12 1.5V13.293L14.146 11.147C14.2397 11.0531 14.367 11.0003 14.4996 11.0002C14.5653 11.0002 14.6304 11.0131 14.6911 11.0382C14.7518 11.0633 14.807 11.1001 14.8535 11.1465C14.9 11.1929 14.9369 11.248 14.9621 11.3087C14.9872 11.3694 15.0002 11.4344 15.0003 11.5001C15.0003 11.5658 14.9874 11.6309 14.9623 11.6916C14.9372 11.7523 14.9004 11.8075 14.854 11.854L11.854 14.854C11.7602 14.9477 11.6331 15.0004 11.5005 15.0004C11.3679 15.0004 11.2408 14.9477 11.147 14.854L8.14699 11.854C8.10043 11.8076 8.06348 11.7524 8.03828 11.6916C8.01307 11.6309 8.0001 11.5658 8.0001 11.5C8.0001 11.4342 8.01307 11.3691 8.03828 11.3084C8.06348 11.2476 8.10043 11.1924 8.14699 11.146Z" fill="#475F7B"/>
</svg>
