<svg width="1035" height="203" viewBox="0 0 1035 203" fill="none" xmlns="http://www.w3.org/2000/svg">
<path d="M0.964572 93.7908C0.964572 93.7908 22.3439 15.7625 36.5968 15.7625C50.8496 15.7625 57.9761 89.573 72.2289 89.573C86.4818 89.573 93.6083 36.8512 107.861 36.8512C122.114 36.8512 129.24 121.206 143.493 121.206C157.746 121.206 164.873 19.9803 179.125 19.9803C193.378 19.9803 200.505 65.9537 214.758 102.226C229.011 138.499 236.137 201.343 250.39 201.343C264.643 201.343 271.769 83.2464 286.022 83.2464C300.275 83.2464 307.401 180.255 321.654 180.255C335.907 180.255 343.034 1.00042 357.286 1.00042C371.539 1.00042 378.666 140.186 392.919 146.513C407.171 152.839 414.298 149.043 428.551 152.839C442.804 156.635 449.93 165.492 464.183 165.492C478.436 165.492 485.562 165.492 499.815 148.621C514.068 131.75 521.194 70.5932 535.447 70.5932C549.7 70.5932 556.827 108.553 571.08 108.553C585.332 108.553 592.459 49.5045 606.712 49.5045C620.965 49.5045 628.091 169.71 642.344 169.71C656.597 169.71 663.723 24.198 677.976 24.198C692.229 24.198 699.355 135.968 713.608 135.968C727.861 135.968 734.988 114.036 749.24 89.573C763.493 65.1101 770.62 13.6536 784.873 13.6536C799.126 13.6536 806.252 24.6198 820.505 60.0488C834.758 95.4779 841.884 190.799 856.137 190.799C870.39 190.799 877.516 171.819 891.769 171.819C906.022 171.819 913.148 180.255 927.401 180.255C941.654 180.255 948.781 125.846 963.034 102.226C977.286 78.6069 984.413 62.1577 998.666 62.1577C1012.92 62.1577 1034.3 83.2464 1034.3 83.2464" stroke="#602BF8" stroke-width="2"/>
</svg>
