<svg width="15" height="17" viewBox="0 0 15 17" fill="none" xmlns="http://www.w3.org/2000/svg">
<path fill-rule="evenodd" clip-rule="evenodd" d="M0 7.07006C0 3.16019 3.26728 0 7.21939 0C11.1826 0 14.4499 3.16019 14.4499 7.07006C14.4499 9.04029 13.7334 10.8694 12.554 12.4198C11.2529 14.1299 9.64929 15.6199 7.84422 16.7895C7.4311 17.0598 7.05826 17.0802 6.60485 16.7895C4.7895 15.6199 3.18586 14.1299 1.89592 12.4198C0.715682 10.8694 0 9.04029 0 7.07006ZM4.84007 7.2902C4.84007 8.60001 5.90888 9.63017 7.21939 9.63017C8.53076 9.63017 9.60986 8.60001 9.60986 7.2902C9.60986 5.9906 8.53076 4.91028 7.21939 4.91028C5.90888 4.91028 4.84007 5.9906 4.84007 7.2902Z" fill="white"/>
</svg>
