<svg width="16" height="16" viewBox="0 0 16 16" fill="none" xmlns="http://www.w3.org/2000/svg">
<g clip-path="url(#clip0_445_1648)">
<path d="M10.24 2.8469C10.24 2.1734 10.4787 1.5217 10.9138 1.00762C11.3489 0.493533 11.9522 0.150371 12.6165 0.0391151C13.2807 -0.0721406 13.9629 0.0557172 14.5418 0.399966C15.1207 0.744214 15.5587 1.28255 15.7781 1.91931C15.9976 2.55607 15.9841 3.25 15.7402 3.87777C15.4962 4.50554 15.0376 5.0265 14.4458 5.34805C13.854 5.6696 13.1674 5.77091 12.508 5.63399C11.8486 5.49707 11.259 5.13078 10.8442 4.60021L5.59219 7.2262C5.7218 7.70956 5.7218 8.21854 5.59219 8.7019L10.8464 11.3302C11.2819 10.7759 11.9077 10.403 12.6024 10.2838C13.2972 10.1647 14.0114 10.3078 14.6067 10.6853C15.202 11.0628 15.6358 11.648 15.8242 12.3272C16.0126 13.0065 15.942 13.7315 15.6262 14.3617C15.3104 14.9919 14.7719 15.4824 14.115 15.7381C13.4581 15.9938 12.7297 15.9964 12.0709 15.7456C11.4122 15.4947 10.87 15.0082 10.5496 14.3803C10.2292 13.7524 10.1533 13.028 10.3367 12.3473L5.08247 9.71907C4.71725 10.1847 4.21592 10.5247 3.64831 10.692C3.0807 10.8592 2.47506 10.8452 1.91575 10.6521C1.35645 10.4589 0.871317 10.096 0.527931 9.61413C0.184545 9.13222 0 8.55522 0 7.96348C0 7.37175 0.184545 6.79475 0.527931 6.31284C0.871317 5.83093 1.35645 5.46811 1.91575 5.27492C2.47506 5.08172 3.0807 5.06776 3.64831 5.23499C4.21592 5.40222 4.71725 5.74231 5.08247 6.20789L10.3356 3.58304C10.2718 3.34288 10.2396 3.0954 10.24 2.8469ZM13.0867 1.13796C12.6336 1.13796 12.1991 1.31795 11.8787 1.63833C11.5583 1.95871 11.3784 2.39324 11.3784 2.84633C11.3784 3.29942 11.5583 3.73395 11.8787 4.05433C12.1991 4.37472 12.6336 4.5547 13.0867 4.5547C13.5398 4.5547 13.9743 4.37472 14.2947 4.05433C14.6151 3.73395 14.7951 3.29942 14.7951 2.84633C14.7951 2.39324 14.6151 1.95871 14.2947 1.63833C13.9743 1.31795 13.5398 1.13796 13.0867 1.13796ZM13.0844 11.378C12.6318 11.378 12.1977 11.5578 11.8777 11.8778C11.5576 12.1979 11.3778 12.632 11.3778 13.0846C11.3778 13.5373 11.5576 13.9713 11.8777 14.2914C12.1977 14.6115 12.6318 14.7913 13.0844 14.7913C13.5371 14.7913 13.9712 14.6115 14.2912 14.2914C14.6113 13.9713 14.7911 13.5373 14.7911 13.0846C14.7911 12.632 14.6113 12.1979 14.2912 11.8778C13.9712 11.5578 13.5371 11.378 13.0844 11.378ZM1.13779 7.96462C1.13779 8.18874 1.18194 8.41067 1.26771 8.61773C1.35347 8.82479 1.47919 9.01294 1.63766 9.17142C1.79614 9.32989 1.98428 9.45561 2.19135 9.54137C2.39841 9.62714 2.62034 9.67129 2.84446 9.67129C3.06858 9.67129 3.29051 9.62714 3.49757 9.54137C3.70463 9.45561 3.89278 9.32989 4.05125 9.17142C4.20973 9.01294 4.33544 8.82479 4.42121 8.61773C4.50698 8.41067 4.55112 8.18874 4.55112 7.96462C4.55112 7.51198 4.37132 7.07789 4.05125 6.75783C3.73119 6.43776 3.2971 6.25796 2.84446 6.25796C2.39182 6.25796 1.95773 6.43776 1.63766 6.75783C1.3176 7.07789 1.13779 7.51198 1.13779 7.96462Z" fill="#E5EEFF"/>
</g>
<defs>
<clipPath id="clip0_445_1648">
<rect width="16" height="16" fill="white"/>
</clipPath>
</defs>
</svg>
