<svg width="34" height="28" viewBox="0 0 34 28" fill="none" xmlns="http://www.w3.org/2000/svg">
<path d="M30.3477 0H3.65234C1.63844 0 0 1.50197 0 3.34812V19.4191C0 21.2652 1.63844 22.7672 3.65234 22.7672H12.2529C12.3579 22.7672 12.4577 22.8134 12.52 22.8909L15.6579 26.7907C15.9724 27.1816 16.4565 27.407 16.9863 27.4093H16.9943C17.521 27.4093 18.0043 27.1882 18.321 26.8019L21.5301 22.8886C21.5925 22.8125 21.6917 22.7671 21.7955 22.7671H30.3477C32.3616 22.7671 34 21.2652 34 19.419V3.34806C34 1.5019 32.3616 0 30.3477 0ZM32.0078 19.4191C32.0078 19.5629 31.9855 19.7018 31.9447 19.8338L21.7111 11.6103L32.0078 3.77704V19.4191ZM30.3477 1.82625C30.6513 1.82625 30.936 1.90173 31.1811 2.03279L18.063 12.0124C17.4486 12.4798 16.557 12.4798 15.9426 12.0124L2.8222 2.03103C3.06657 1.90106 3.35006 1.82625 3.65234 1.82625H30.3477ZM2.05534 19.8338C2.0145 19.7018 1.99219 19.5628 1.99219 19.4191V3.77278L12.2917 11.608L2.05534 19.8338ZM19.9377 21.7912L16.9965 25.3778L14.1233 21.8069C13.6871 21.2646 12.9878 20.9409 12.2528 20.9409H3.69969L13.844 12.7891L14.6703 13.4177C15.3462 13.9318 16.1743 14.1888 17.0028 14.1888C17.831 14.1888 18.6595 13.9316 19.3352 13.4177L20.1585 12.7913L30.3002 20.9409H21.7955C21.069 20.9409 20.3744 21.2588 19.9377 21.7912Z" fill="white"/>
</svg>
