<svg width="16" height="16" viewBox="0 0 16 16" fill="none" xmlns="http://www.w3.org/2000/svg">
<path d="M11.6 2.3999H4.40002C3.86959 2.3999 3.36088 2.61062 2.98581 2.98569C2.61074 3.36076 2.40002 3.86947 2.40002 4.3999V11.5999C2.40002 12.1303 2.61074 12.639 2.98581 13.0141C3.36088 13.3892 3.86959 13.5999 4.40002 13.5999H11.6C12.1305 13.5999 12.6392 13.3892 13.0142 13.0141C13.3893 12.639 13.6 12.1303 13.6 11.5999V4.3999C13.6 3.86947 13.3893 3.36076 13.0142 2.98569C12.6392 2.61062 12.1305 2.3999 11.6 2.3999ZM3.20002 11.1999H7.20002V12.7999H4.40002L4.28482 12.7943C3.9879 12.7657 3.71228 12.6275 3.51172 12.4066C3.31116 12.1858 3.20004 11.8982 3.20002 11.5999V11.1999ZM4.40002 3.1999H7.20002L7.19442 4.7999H3.19442L3.20002 4.3999L3.20562 4.2847C3.23426 3.98777 3.37247 3.71216 3.59329 3.5116C3.81411 3.31104 4.10172 3.19992 4.40002 3.1999ZM12.7944 4.7999H7.99442L8.00002 3.1999H11.6L11.716 3.2055C12.0128 3.23433 12.2882 3.37261 12.4886 3.59342C12.689 3.81422 12.8 4.10172 12.8 4.3999L12.7944 4.7999ZM12.7944 5.5999L12.8 10.3999H3.20002L3.19442 5.5999H12.7944ZM12.8 11.1999V11.5999L12.7944 11.7159C12.7656 12.0127 12.6273 12.2881 12.4065 12.4885C12.1857 12.6889 11.8982 12.7999 11.6 12.7999H8.00002V11.1999H12.8Z" fill="#475F7B"/>
</svg>
