<svg width="28" height="25" viewBox="0 0 28 25" fill="none" xmlns="http://www.w3.org/2000/svg">
<path d="M26.4999 12.2051H11.1118" stroke="white" stroke-width="3" stroke-linecap="round" stroke-linejoin="round"/>
<path d="M14.9588 8.91113L11.1118 12.205L14.9588 15.4988" stroke="white" stroke-width="3" stroke-linecap="round" stroke-linejoin="round"/>
<path d="M24.5383 17.9692C23.0822 19.9202 20.9266 21.4144 18.3948 22.2278C15.863 23.0411 13.0915 23.1297 10.4959 22.4803C7.9003 21.8308 5.62058 20.4784 3.99865 18.6258C2.37671 16.7732 1.5 14.5203 1.5 12.205C1.5 9.88969 2.37671 7.63679 3.99865 5.78419C5.62058 3.93159 7.9003 2.57916 10.4959 1.92973C13.0915 1.28031 15.863 1.36891 18.3948 2.18224C20.9266 2.99556 23.0822 4.48978 24.5383 6.44077" stroke="white" stroke-width="3" stroke-linecap="round" stroke-linejoin="round"/>
</svg>
