<svg width="21" height="20" viewBox="0 0 21 20" fill="none" xmlns="http://www.w3.org/2000/svg">
<path d="M14.875 2.38477H17.65C18.1407 2.38477 18.6112 2.53064 18.9581 2.79031C19.3051 3.04998 19.5 3.40216 19.5 3.76938V17.6155C19.5 17.9828 19.3051 18.3349 18.9581 18.5946C18.6112 18.8543 18.1407 19.0002 17.65 19.0002H2.85C2.35935 19.0002 1.88879 18.8543 1.54185 18.5946C1.19491 18.3349 1 17.9828 1 17.6155V3.76938C1 3.40216 1.19491 3.04998 1.54185 2.79031C1.88879 2.53064 2.35935 2.38477 2.85 2.38477H5.625" stroke="white" stroke-width="2" stroke-linecap="round" stroke-linejoin="round"/>
<path d="M13.025 1H7.475C6.45327 1 5.625 1.61991 5.625 2.38462V3.07692C5.625 3.84163 6.45327 4.46154 7.475 4.46154H13.025C14.0467 4.46154 14.875 3.84163 14.875 3.07692V2.38462C14.875 1.61991 14.0467 1 13.025 1Z" stroke="white" stroke-width="2" stroke-linecap="round" stroke-linejoin="round"/>
<path d="M5.625 7.92285H14.875" stroke="white" stroke-width="2" stroke-linecap="round" stroke-linejoin="round"/>
<path d="M5.625 11.3848H14.875" stroke="white" stroke-width="2" stroke-linecap="round" stroke-linejoin="round"/>
<path d="M5.625 14.8462H14.875" stroke="white" stroke-width="2" stroke-linecap="round" stroke-linejoin="round"/>
</svg>
