<svg width="26" height="26" viewBox="0 0 26 26" fill="none" xmlns="http://www.w3.org/2000/svg">
<g clip-path="url(#clip0_470_6556)" filter="url(#filter0_d_470_6556)">
<path d="M17.0678 2.26787C17.0729 2.27091 17.0779 2.27397 17.083 2.27702M17.083 2.27702C19.3797 3.66789 20.9146 6.1904 20.9146 9.0714C20.9146 13.0702 17.9576 16.3783 14.111 16.9285M17.083 2.27702V6.2366M17.083 2.27702V2.27406H20.9146M8.88639 15.8749L8.87124 15.8658M8.87124 15.8658C6.57456 14.4749 5.03966 11.9524 5.03966 9.0714C5.03966 5.07266 7.99659 1.76454 11.8432 1.21433M8.87124 15.8658L8.87124 11.9062M8.87124 15.8658V15.8687H5.03966" stroke="black" stroke-width="2" stroke-linecap="round" stroke-linejoin="round"/>
</g>
<defs>
<filter id="filter0_d_470_6556" x="-0.125991" y="0" width="26.2062" height="26.2062" filterUnits="userSpaceOnUse" color-interpolation-filters="sRGB">
<feFlood flood-opacity="0" result="BackgroundImageFix"/>
<feColorMatrix in="SourceAlpha" type="matrix" values="0 0 0 0 0 0 0 0 0 0 0 0 0 0 0 0 0 0 127 0" result="hardAlpha"/>
<feOffset dy="4"/>
<feGaussianBlur stdDeviation="2"/>
<feComposite in2="hardAlpha" operator="out"/>
<feColorMatrix type="matrix" values="0 0 0 0 0 0 0 0 0 0 0 0 0 0 0 0 0 0 0.25 0"/>
<feBlend mode="normal" in2="BackgroundImageFix" result="effect1_dropShadow_470_6556"/>
<feBlend mode="normal" in="SourceGraphic" in2="effect1_dropShadow_470_6556" result="shape"/>
</filter>
<clipPath id="clip0_470_6556">
<rect width="18" height="18" fill="white" transform="translate(3.90573) scale(1.00793)"/>
</clipPath>
</defs>
</svg>
